{"title":"The.Hole.2009.DvDRip.XviD.Ac3.Feel-Free","uid":5871593,"size":1169983991,"categoryP":"video","categoryS":"movies","magnet":"?xt=urn:btih:97c21f18e96a2d1b9ca66226017335f034e4e5a0&amp;dn=The.Hole.2009.DvDRip.XviD.Ac3.Feel-Free&amp;tr=udp%3A%2F%2Ftracker.openbittorrent.com%3A80&amp;tr=udp%3A%2F%2Fopen.demonii.com%3A1337&amp;tr=udp%3A%2F%2Ftracker.coppersurfer.tk%3A6969&amp;tr=udp%3A%2F%2Fexodus.desync.com%3A6969","seeders":0,"leechers":1,"uploader":".BONE.","files":10,"time":1286474058,"description":"Genre:Horror | Thriller\nLanguage:English\nIMDb:http://www.imdb.com/title/tt1085779/\nSource:DVD Rus/Audio-NeDiVx\n\nGeneral\nComplete name :The.Hole.2009.DvDRip.XviD.Ac3.Feel-Free\nFormat : AVI\nFormat/Info : Audio Video Interleave\nFile size : 1.09 GiB\nDuration : 1h 28mn\nOverall bit rate : 1 757 Kbps\nVideo #0\nMuxing mode : Packed bitstream\nCodec ID : XVID\nCodec ID/Hint : XviD\nDuration : 1h 28mn\nBit rate : 1 299 Kbps\nWidth : 652 pixels\nHeight : 352 pixels\nDisplay aspect ratio : 1.852\nFrame rate : 25.000 fps\nResolution : 24 bits\nColorimetry : 4:2:0\nScan type : Progressive\nBits/(Pixel*Frame) : 0.226\nStream size : 825 MiB (74%)\nWriting library : XviD 1.2.1 (UTC 2008-12-04)\nAudio #1\nID : 1\nFormat : AC-3\nFormat/Info : Audio Coding 3\nCodec ID : 2000\nDuration : 1h 28mn\nBit rate mode : Constant\nBit rate : 448 Kbps\nChannel(s) : 6 channels\nChannel positions : Front: L C R, Surround: L R, LFE\nSampling rate : 48.0 KHz\nStream size : 285 MiB (26%)\nAlignment : Split accross interleaves\nInterleave, duration : 40 ms (1.00 video frame)\nInterleave, preload duration : 500 ms\n\nPlot:\nA pair of brothers stumble upon a mysterious hole in their basement that leads to the darkest corridors of their fears and nightmares.\n","torrent":{"xt":"urn:btih:97c21f18e96a2d1b9ca66226017335f034e4e5a0","amp;dn":"The.Hole.2009.DvDRip.XviD.Ac3.Feel-Free","amp;tr":["udp%3A%2F%2Ftracker.openbittorrent.com%3A80","udp%3A%2F%2Fopen.demonii.com%3A1337","udp%3A%2F%2Ftracker.coppersurfer.tk%3A6969","udp%3A%2F%2Fexodus.desync.com%3A6969"],"infoHash":"97c21f18e96a2d1b9ca66226017335f034e4e5a0","infoHashBuffer":{"type":"Buffer","data":[151,194,31,24,233,106,45,27,156,166,98,38,1,115,53,240,52,228,229,160]},"announce":[],"urlList":[]}}